{"title":"The Adventurer The Curse of the Midas Box [2014] R5 YG","uid":9469956,"size":739111374,"categoryP":"video","categoryS":"movies","magnet":"?xt=urn:btih:d456db126ca6fe988a769b1476cd4a1122ec28ef&amp;dn=The+Adventurer+The+Curse+of+the+Midas+Box+%5B2014%5D+R5+YG&amp;tr=udp%3A%2F%2Ftracker.openbittorrent.com%3A80&amp;tr=udp%3A%2F%2Fopen.demonii.com%3A1337&amp;tr=udp%3A%2F%2Ftracker.coppersurfer.tk%3A6969&amp;tr=udp%3A%2F%2Fexodus.desync.com%3A6969","seeders":1,"leechers":0,"uploader":"yerisan710","files":-1,"time":1389540152,"description":"-------------------------------------------------------------------------------\n                               Yerisan Group\n-------------------------------------------------------------------------------\n                         (for your consideration)\n\n*******************************************************************************\n     The Adventurer The Curse of the Midas Box [2014] R5 DVDRip.XviD-PsiX YG   \n*******************************************************************************\n\nAncient mysteries. Powerful evil. \nAnd a fearless hero's quest through a fantastical realm \nof steam-powered wonders and sinister magic... \n\n\n-Director:\n-Jonathan Newman\n-Writers:\n-Christian Taylor , Matthew Huffman \n-Stars:\n-Michael Sheen, Lena Headey, Sam Neill\n\n\n\n*******************************************************************************\nFormat                                   : AVI\nFormat/Info                              : Audio Video Interleave\nFile size                                : 700 MiB\nDuration                                 : 1h 34mn\nOverall bit rate mode                    : Variable\nOverall bit rate                         : 1 034 Kbps\n\n*******************************************************************************\nVideo\n*******************************************************************************\nID                                       : 0\nFormat                                   : MPEG-4 Visual\nFormat profile                           : Advanced Simple@L5\nFormat settings, BVOP                    : 2\nFormat settings, QPel                    : No\nFormat settings, GMC                     : No warppoints\nFormat settings, Matrix                  : Default (H.263)\nMuxing mode                              : Packed bitstream\nCodec ID                                 : XVID\nCodec ID/Hint                            : XviD\nDuration                                 : 1h 34mn\nBit rate                                 : 893 Kbps\nWidth                                    : 640 pixels\nHeight                                   : 352 pixels\nDisplay aspect ratio                     : 16:9\nFrame rate                               : 25.000 fps\nColor space                              : YUV\nChroma subsampling                       : 4:2:0\nBit depth                                : 8 bits\nScan type                                : Interlaced\nScan order                               : Bottom Field First\nCompression mode                         : Lossy\nBits/(Pixel*Frame)                       : 0.159\nStream size                              : 604 MiB (86%)\nWriting library                          : XviD 1.2.1 (UTC 2008-12-04)\n\n*******************************************************************************\nAudio\n*******************************************************************************\nID                                       : 1\nFormat                                   : MPEG Audio\nFormat version                           : Version 1\nFormat profile                           : Layer 3\nCodec ID                                 : 55\nCodec ID/Hint                            : MP3\nDuration                                 : 1h 34mn\nBit rate mode                            : Variable\nBit rate                                 : 128 Kbps\nChannel count                            : 2 channels\nSampling rate                            : 48.0 KHz\nCompression mode                         : Lossy\nStream size                              : 87.0 MiB (12%)\nAlignment                                : Aligned on interleaves\nInterleave, duration                     : 24 ms (0.60 video frame)\nInterleave, preload duration             : 190 ms\nTitle                                    : The.Adventurer.The.Curse.of.the.Midas.Box-PsiX\nWriting library                          : LAME3.99r\nEncoding settings                        : -m s -V 5 -q 3 -lowpass 17 --abr 128\n\n\n\n*******************************************************************************                                                        \nEncoded....................PsiX              \nSource.....................DVD R5 PAL (Thanks!)\nSource Audio...............diamond (Thanks!)\nSample.....................Yes\nSubs.......................No\n*******************************************************************************\nScreenShot...:\n &lt;a href=&quot;\nhttp://www.dmtinc.cl/imagenes/BnhD.png&quot; rel=&quot;nofollow&quot; target=&quot;_NEW&quot;&gt;\nhttp://www.dmtinc.cl/imagenes/BnhD.png&lt;/a&gt; &lt;a href=&quot;\nhttp://www.dmtinc.cl/imagenes/zYF51.png&quot; rel=&quot;nofollow&quot; target=&quot;_NEW&quot;&gt;\nhttp://www.dmtinc.cl/imagenes/zYF51.png&lt;/a&gt; &lt;a href=&quot;\nhttp://www.dmtinc.cl/imagenes/7thVb.jpg&quot; rel=&quot;nofollow&quot; target=&quot;_NEW&quot;&gt;\nhttp://www.dmtinc.cl/imagenes/7thVb.jpg&lt;/a&gt; &lt;a href=&quot;\nhttp://www.dmtinc.cl/imagenes/RnBzH.jpg&quot; rel=&quot;nofollow&quot; target=&quot;_NEW&quot;&gt;\nhttp://www.dmtinc.cl/imagenes/RnBzH.jpg&lt;/a&gt; &lt;a href=&quot;\nhttp://www.dmtinc.cl/imagenes/GawCq.jpg&quot; rel=&quot;nofollow&quot; target=&quot;_NEW&quot;&gt;\nhttp://www.dmtinc.cl/imagenes/GawCq.jpg&lt;/a&gt;\n\n*******************************************************************************\n\n*******************************************************************************\nGreetz To: tomcat-12 | Blacksheep | FWOLF | CFR .....\n.....and all P2P Encoders and Groups.....\n*******************************************************************************\n\n------------------------------------------------------------------------------\n                               Yerisan Group\n-------------------------------------------------------------------------------\n                         (for your consideration)\n\n                      Please Seed\n   Enjoy  ;)\n\n             Please Seed  :)\n                                    Enjoy\n-------------------------------------------------------------------------------\n     Free Torrents DOES **NOT** MEAN YOU CAN HIT &amp; RUN!!\n-------------------------------------------------------------------------------","torrent":{"xt":"urn:btih:d456db126ca6fe988a769b1476cd4a1122ec28ef","amp;dn":"The+Adventurer+The+Curse+of+the+Midas+Box+%5B2014%5D+R5+YG","amp;tr":["udp%3A%2F%2Ftracker.openbittorrent.com%3A80","udp%3A%2F%2Fopen.demonii.com%3A1337","udp%3A%2F%2Ftracker.coppersurfer.tk%3A6969","udp%3A%2F%2Fexodus.desync.com%3A6969"],"infoHash":"d456db126ca6fe988a769b1476cd4a1122ec28ef","infoHashBuffer":{"type":"Buffer","data":[212,86,219,18,108,166,254,152,138,118,155,20,118,205,74,17,34,236,40,239]},"announce":[],"urlList":[]}}